<svg width="32" height="32" viewBox="0 0 32 32" fill="none" xmlns="http://www.w3.org/2000/svg">
<g id="Car">
<path id="Vector" d="M28.2644 18.7196L28.2966 18.5427C28.3266 18.3779 28.343 18.2088 28.343 18.0363C28.343 16.4794 27.0761 15.2125 25.5192 15.2125C24.4705 15.2125 23.5536 15.7877 23.0664 16.64L23.0232 16.7155H22.9362H12.1135C11.7975 16.7155 11.4996 16.5921 11.2761 16.3687L11.2761 16.3686L10.2133 15.3059C10.0888 15.1814 9.88701 15.1814 9.7626 15.3059L9.76258 15.3059C9.63809 15.4304 9.63812 15.6322 9.76257 15.7566L9.76258 15.7566L10.8253 16.8194C11.1697 17.1637 11.6266 17.353 12.1135 17.353H22.5942H22.774L22.7418 17.5299C22.7118 17.6947 22.6954 17.8637 22.6954 18.0363C22.6954 18.2088 22.7118 18.3779 22.7418 18.5427L22.774 18.7195H22.5942H8.90483H8.72508L8.75725 18.5427C8.78724 18.3779 8.80364 18.2088 8.80364 18.0363C8.80364 16.4793 7.53674 15.2124 5.97982 15.2124C4.47017 15.2124 3.23316 16.4038 3.15957 17.8955L3.14984 18.0929L2.96232 18.0304L1.59728 17.5754C1.113 17.414 0.787502 16.9624 0.787502 16.4519V13.8156V13.6857L0.916062 13.6672L9.49777 12.4279L9.66921 12.4031V12.5763V12.6581C9.66921 13.3107 10.1572 13.8733 10.8032 13.9656C10.8032 13.9656 10.8032 13.9656 10.8032 13.9656L11.5076 14.0662C11.5232 14.0684 11.5385 14.0695 11.5535 14.0695C11.7094 14.0695 11.8457 13.9546 11.8685 13.7958C11.8933 13.6215 11.7722 13.4601 11.598 13.4352L10.8934 13.3346L10.8934 13.3346C10.5586 13.2867 10.3068 12.9965 10.3068 12.6582V12.441V12.3111L10.4353 12.2925L13.424 11.8609C15.7407 11.5263 18.1201 11.7936 20.3049 12.6339L22.5295 13.4896L22.9124 13.6369L22.5248 13.7713C21.9087 13.9849 21.3819 14.2208 21.0063 14.4052C20.6196 14.595 20.1846 14.6619 19.7492 14.5996C19.7492 14.5996 19.7492 14.5996 19.7492 14.5996L13.5402 13.7126L28.2644 18.7196ZM28.2644 18.7196H28.4442H30.5293C30.9062 18.7196 31.2126 18.4132 31.2126 18.0363V17.002V16.852H31.0626H30.0284C29.8523 16.852 29.7096 16.7093 29.7096 16.5333C29.7096 16.3572 29.8523 16.2145 30.0284 16.2145H30.6604H31.0998L30.7521 15.9458L30.7458 15.9408C30.7428 15.9384 30.7382 15.9347 30.7328 15.9308M28.2644 18.7196L30.7328 15.9308M30.7328 15.9308C29.6872 15.1615 27.5995 13.8459 25.5193 13.8459C23.837 13.8459 22.1412 14.5581 21.2874 14.9774C20.7862 15.2234 20.2234 15.3112 19.6591 15.2307C19.6591 15.2307 19.659 15.2307 19.659 15.2307L13.4499 14.3437L30.7328 15.9308ZM13.1795 13.9831C13.1546 14.1574 13.2757 14.3188 13.4499 14.3437L13.1795 13.9831ZM13.1795 13.9831C13.2043 13.809 13.3655 13.6879 13.5401 13.7126L13.1795 13.9831ZM5.4002 18.6159L5.40018 18.6159C5.27573 18.4915 5.27571 18.2896 5.4002 18.1651L6.1087 17.4566C6.2332 17.3321 6.43502 17.3322 6.55943 17.4566L6.55947 17.4567C6.68392 17.5811 6.68394 17.7829 6.55945 17.9074L5.85095 18.6159L5.85091 18.6159C5.7887 18.6782 5.70738 18.7093 5.62557 18.7093C5.54382 18.7093 5.46246 18.6781 5.4002 18.6159ZM24.9396 17.4566L24.9396 17.4566C25.064 17.3322 25.2658 17.3321 25.3903 17.4566L26.0988 18.1651L26.0988 18.1652C26.2233 18.2896 26.2233 18.4914 26.0988 18.6159L26.0988 18.6159C26.0366 18.6782 25.9552 18.7093 25.8734 18.7093C25.7917 18.7093 25.7103 18.6781 25.6481 18.6159L24.9396 17.9074L24.9395 17.9074C24.8151 17.783 24.8151 17.5811 24.9396 17.4566ZM23.949 13.3531L23.9892 13.3686L24.0314 13.3604C24.5154 13.2665 25.0175 13.2084 25.5192 13.2084C27.763 13.2084 29.9777 14.5839 31.1105 15.4173C31.5733 15.7577 31.8501 16.306 31.85 16.8836V18.0363C31.85 18.7644 31.2574 19.357 30.5292 19.357H28.1022H28.0152L27.972 19.4326C27.4848 20.2848 26.5679 20.86 25.5192 20.86C24.4705 20.86 23.5536 20.2848 23.0664 19.4326L23.0232 19.357H22.9362H8.56283H8.4758L8.43261 19.4326C7.94541 20.2848 7.02852 20.86 5.97982 20.86C4.71522 20.86 3.6414 20.0241 3.28321 18.8751L3.26034 18.8018L3.18744 18.7775L1.39569 18.1802C0.650496 17.9318 0.15 17.2374 0.15 16.4519V13.4098C0.15 13.2513 0.266359 13.1169 0.42319 13.0943C0.423191 13.0943 0.423193 13.0943 0.423195 13.0943L13.3328 11.23L13.3114 11.0816L13.3328 11.23C15.7572 10.8798 18.2474 11.1596 20.5337 12.039L23.949 13.3531ZM3.79351 18.0363C3.79351 19.2419 4.77417 20.2226 5.97982 20.2226C7.18555 20.2226 8.16614 19.2419 8.16614 18.0363C8.16614 16.8306 7.18548 15.8499 5.97982 15.8499C4.77417 15.8499 3.79351 16.8306 3.79351 18.0363ZM23.3329 18.0363C23.3329 19.2419 24.3136 20.2226 25.5192 20.2226C26.7248 20.2226 27.7056 19.2419 27.7056 18.0363C27.7056 16.8306 26.7249 15.8499 25.5192 15.8499C24.3136 15.8499 23.3329 16.8306 23.3329 18.0363Z" fill="#16191A" stroke="#16191A" stroke-width="0.3"/>
</g>
</svg>
