<svg width="1060" height="562" viewBox="0 0 1060 562" fill="none" xmlns="http://www.w3.org/2000/svg">
<path d="M1058.5 40.5001C1042 33.0001 759.656 -75.6284 534.5 108C361 249.5 414 328.434 267.5 449.5C195.5 509 75.9 535.1 51.5 537.5" stroke="black" stroke-width="2" stroke-linecap="round" stroke-dasharray="12 12"/>
<g clip-path="url(#clip0_1237_1247)">
<path d="M491.977 148.059C492.083 147.272 491.822 146.5 491.261 145.939C490.7 145.378 489.927 145.117 489.141 145.223C487.178 145.487 485.325 146.404 483.925 147.804L480.861 150.868L467.392 147.05C467.065 146.957 466.714 147.049 466.473 147.289L463.6 150.162C463.389 150.373 463.291 150.672 463.336 150.967C463.382 151.263 463.565 151.518 463.829 151.656L474.503 157.226L470.024 161.705L463.654 159.941C463.328 159.85 462.979 159.942 462.741 160.181L460.275 162.647C460.066 162.855 459.968 163.15 460.009 163.441C460.051 163.733 460.227 163.988 460.485 164.131L468.595 168.605L473.069 176.715C473.211 176.973 473.467 177.149 473.758 177.191C473.802 177.197 473.846 177.2 473.89 177.2C474.137 177.2 474.376 177.102 474.553 176.925L477.019 174.459C477.257 174.22 477.349 173.872 477.259 173.546L475.495 167.175L479.974 162.696L485.543 173.37C485.682 173.635 485.937 173.818 486.232 173.863C486.28 173.871 486.327 173.874 486.375 173.874C486.621 173.874 486.86 173.777 487.037 173.6L489.911 170.726C490.151 170.486 490.243 170.135 490.15 169.808L486.332 156.339L489.395 153.275C490.796 151.875 491.713 150.022 491.977 148.059ZM473.783 166.236C473.544 166.475 473.452 166.824 473.542 167.149L475.306 173.52L474.109 174.718L470.106 167.462C470.02 167.307 469.893 167.18 469.738 167.094L462.482 163.091L463.68 161.893L470.051 163.657C470.376 163.748 470.725 163.656 470.964 163.417L485.25 149.13C486.362 148.018 487.833 147.291 489.391 147.081C489.667 147.044 489.85 147.18 489.935 147.265C490.019 147.349 490.156 147.533 490.119 147.809C489.909 149.367 489.181 150.838 488.07 151.949L473.783 166.236ZM465.829 150.585L467.41 149.004L479.343 152.386L475.893 155.836L465.829 150.585ZM488.196 169.79L486.615 171.371L481.364 161.307L484.813 157.857L488.196 169.79Z" fill="#4D73FC"/>
</g>
<g clip-path="url(#clip1_1237_1247)">
<path d="M43.1236 540.073C43.7376 539.571 44.0746 538.828 44.0479 538.035C44.0212 537.243 43.635 536.525 42.9889 536.065C41.3745 534.917 39.395 534.321 37.4151 534.388L33.085 534.533L25.8539 522.546C25.6784 522.255 25.3593 522.081 25.0197 522.093L20.9583 522.23C20.66 522.24 20.3843 522.391 20.2158 522.637C20.0474 522.884 20.0064 523.196 20.1054 523.477L24.099 534.835L17.7683 535.048L14.3195 529.409C14.1434 529.121 13.8258 528.95 13.4882 528.961L10.0028 529.078C9.70835 529.088 9.43563 529.236 9.26656 529.477C9.09744 529.718 9.05169 530.025 9.14291 530.305L12.0115 539.112L9.74092 548.092C9.66868 548.378 9.73498 548.681 9.91992 548.91C9.9477 548.945 9.9777 548.977 10.0097 549.007C10.1899 549.175 10.4312 549.267 10.6814 549.259L14.1667 549.142C14.5043 549.13 14.8096 548.939 14.9661 548.639L18.0283 542.781L24.3592 542.568L21.1375 554.168C21.0576 554.456 21.1194 554.765 21.304 554.999C21.3337 555.037 21.366 555.072 21.4005 555.104C21.5806 555.273 21.8219 555.365 22.0722 555.356L26.1335 555.22C26.4732 555.208 26.78 555.014 26.9355 554.712L33.345 542.266L37.6752 542.12C39.655 542.054 41.59 541.326 43.1236 540.073ZM17.4191 540.925C17.0816 540.937 16.7763 541.129 16.6198 541.428L13.5575 547.286L11.8643 547.343L13.8956 539.309C13.939 539.138 13.933 538.958 13.8781 538.789L11.3118 530.91L13.005 530.853L16.4539 536.493C16.63 536.781 16.9477 536.952 17.2852 536.941L37.4781 536.262C39.0496 536.209 40.6208 536.681 41.9022 537.593C42.1291 537.754 42.17 537.979 42.174 538.098C42.1779 538.218 42.1525 538.445 41.9367 538.621C40.7194 539.616 39.1836 540.193 37.6121 540.246L17.4191 540.925ZM22.298 524.06L24.5327 523.985L30.9389 534.605L26.0635 534.769L22.298 524.06ZM25.5205 553.364L23.2858 553.44L26.3234 542.502L31.1988 542.338L25.5205 553.364Z" fill="#4D73FC"/>
</g>
<defs>
<clipPath id="clip0_1237_1247">
<rect width="32" height="32" fill="white" transform="translate(460 145)"/>
</clipPath>
<clipPath id="clip1_1237_1247">
<rect width="32" height="32" fill="white" transform="translate(21.8542 516) rotate(43.0743)"/>
</clipPath>
</defs>
</svg>
